<svg xmlns="http://www.w3.org/2000/svg" viewBox="0 0 448 126.33"><defs><style>.cls-1{fill:#b8d5f0;}.cls-2{fill:#5798d2;}.cls-3{fill:#3074bb;}.cls-4{fill:#2a9847;}.cls-5{fill:#299847;}.cls-6{fill:#428bca;}.cls-7{fill:#66a2d8;}.cls-8{fill:#93bee5;}.cls-9{fill:#d6e7f4;}.cls-10{fill:#6ba5d9;}.cls-11{fill:#b1d0ed;}.cls-12{fill:#fff;}</style></defs><g id="Layer_2" data-name="Layer 2"><g id="Layer_1-2" data-name="Layer 1"><path class="cls-1" d="M40.49.15V0H61.44l0,.19a1.47,1.47,0,0,1-1,.22Q51,.43,41.59.41A1.4,1.4,0,0,1,40.49.15Z"/><path class="cls-1" d="M111.31,0c0,.17,0,.35-.14.48-5.23-.15-10.46,0-15.69-.07A2,2,0,0,1,94.13.18l0-.18Z"/><path class="cls-1" d="M329.24,0c0,.17,0,.35-.12.48-5.2-.16-10.4,0-15.6-.07-.45,0-.94.11-1.33-.27a.71.71,0,0,1,0-.14Z"/><path class="cls-1" d="M270.3,0a.38.38,0,0,1,0,.15,1.41,1.41,0,0,1-1,.26q-7,0-14.07,0a1.33,1.33,0,0,1-1-.22l0-.19Z"/><path class="cls-2" d="M.16,79.08,0,79.1V77.85H.15A1,1,0,0,1,.16,79.08Z"/><path class="cls-3" d="M182.13,22.51a21.83,21.83,0,0,1,15.31-6.93A20.91,20.91,0,0,1,205,16.73a9.25,9.25,0,0,1,5.78,5c.4.85.76,1.71,1.18,2.63a19.48,19.48,0,0,1,2.94-3.33,21.55,21.55,0,0,1,12.93-5.23,22.33,22.33,0,0,1,9.32,1.07c3.51,1.29,6,3.56,6.7,7.37a15.41,15.41,0,0,1-.47,6.26c-1.65,7.7-3.31,15.4-4.92,23.12-.18.83-.47,1-1.31,1-4.84,0-9.69,0-14.53,0-.69,0-.81-.14-.66-.83,1.69-7.86,3.33-15.72,5-23.58a3.12,3.12,0,0,0-.63-2.56c-1.44-2.05-5.42-3.89-8.6-2.05a21.26,21.26,0,0,0-5.45,4.5,7.47,7.47,0,0,0-1.35,3.53Q208.72,43.82,206.55,54c-.11.55-.31.71-.86.71-4.92,0-9.85,0-14.77,0-.76,0-.76-.27-.63-.86q2.29-10.68,4.57-21.36a6.07,6.07,0,0,0-4.79-7.37,6.43,6.43,0,0,0-4.07.82,12.18,12.18,0,0,0-6.7,8.78c-1.31,6.47-2.81,12.91-4.21,19.36-.1.48-.29.62-.78.62q-7.65,0-15.31,0c-.6,0-.67-.15-.55-.72q3.88-18.08,7.71-36.16c.11-.52.32-.67.83-.67q7.53,0,15.08,0c.71,0,.74.26.62.83-.27,1.41-.49,2.82-.74,4.23C182,22.31,181.7,22.59,182.13,22.51Z"/><path class="cls-3" d="M78.21,53.84Q73.83,39.94,69.48,26L61.41.19c-.33,0-.67,0-1,0H40.49l-.06.06L1.4,54.09c-.1.15-.34.28-.21.54l.24,0c5.36,0,10.73,0,16.09,0a1,1,0,0,0,.94-.55c2.07-3,4.16-6,6.22-9a1.13,1.13,0,0,1,1.07-.56q14.73,0,29.46,0c.6,0,.79.22.91.74.71,2.88,1.46,5.75,2.15,8.63.13.56.34.74.93.74q9.21,0,18.44,0C78.38,54.67,78.42,54.49,78.21,53.84ZM52.28,34.31c-6.49,0-13,0-19.45,0a4.58,4.58,0,0,1-.47-.06L47.1,11.8c1.91,7.43,3.76,14.65,5.62,21.87C52.84,34.14,52.84,34.31,52.28,34.31Z"/><path class="cls-3" d="M301.09,28.65a13.68,13.68,0,0,0-10.94-12.39,29,29,0,0,0-11-.14,23.81,23.81,0,0,0-13.27,6.06c-.07.07-.13.17-.28.06a3.56,3.56,0,0,1,.06-.44c1.16-5.31,2.33-10.62,3.47-15.93.42-1.9.93-3.78,1.19-5.72h-8.19l-7.88,0L249,23.39Q245.49,38.67,242,54c-.11.5-.13.72.52.71q7.8,0,15.63,0c.52,0,.7-.16.79-.68.27-1.57.6-3.13.91-4.7l.15.05.17.27a10.07,10.07,0,0,0,5.28,4.63,30,30,0,0,0,10.65,2.16,21.55,21.55,0,0,0,12.5-3.58C297.32,47.16,302.12,39.39,301.09,28.65ZM273.75,47a8.87,8.87,0,0,1-8.47-1.11c-2.49-1.87-3.23-4.55-2.9-7.5a18.16,18.16,0,0,1,4.1-9.79,11.38,11.38,0,0,1,11.12-4.22c3,.48,4.61,2.59,5.49,5.34a11.64,11.64,0,0,1,.43,3.16C283.54,39,279.24,45.23,273.75,47Z"/><path class="cls-3" d="M378.16,12.83l21.32,17.61L444,67.27l4,3.29c-.08.27-.32.34-.51.47l-72.44,49.54c-.15.1-.31.19-.47.28s-.19,0-.16-.15L389,108.62l37.72-31.24c.14-.11.26-.24.44-.41-1.78-1.47-3.53-2.94-5.29-4.4q-16.84-14-33.68-27.91a1,1,0,0,1-.41-1.13c1.9-10.26-.59-19.39-7.07-27.49-.84-1-1.77-2-2.65-3.07C378,12.83,378,12.77,378.16,12.83Z"/><path class="cls-3" d="M154.3,19.44a19.6,19.6,0,0,0-6.21-2.86A36.32,36.32,0,0,0,135,15.64a43.11,43.11,0,0,0-14,3.44c-9.8,4.41-15.09,12.72-14.68,23,.26,6.11,3.27,10.09,9.07,12a54.45,54.45,0,0,0,8.56,1.69,41,41,0,0,0,17.8-.75A27,27,0,0,0,155,47.22a16.7,16.7,0,0,0,2.86-4.33c-.09,0-.13-.09-.18-.09h-17a.56.56,0,0,0-.56.31,11.45,11.45,0,0,1-8.86,5.58c-5.46.66-8.49-3.21-8.2-7.77.09-1.59-.1-1.29,1.41-1.33.31,0,.63,0,.94,0l32.12,0c.45,0,.81,0,.92-.6.35-2.21.84-4.39,1.18-6.6A12.43,12.43,0,0,0,154.3,19.44ZM143.93,30.22c-.21,1.73.23,1.45-1.6,1.48h-8v0c-2.87,0-5.72,0-8.59,0-.59,0-.69-.13-.5-.69a16.48,16.48,0,0,1,2.33-4.48,9,9,0,0,1,5.19-3.08,10.89,10.89,0,0,1,7.34.21C143.2,25,144.35,26.82,143.93,30.22Z"/><path class="cls-3" d="M372,31.54h-7.66c-.45,0-.73-.06-.74-.61a6.66,6.66,0,0,0-.22-1.15c-.83-3.69-2.87-5.44-6.68-5.52a11.93,11.93,0,0,0-9.81,4.48,15.39,15.39,0,0,0-3.41,13.59c.81,3.76,3.45,5.66,7.27,5.3a22.23,22.23,0,0,0,4.15-.71,9.73,9.73,0,0,0,7-6.64c.17-.52.46-.4.76-.4l14.61,0c.39,0,.79,0,1.18,0,.63-.07.61.19.42.66a28.4,28.4,0,0,1-2.05,4,31.25,31.25,0,0,1-4.23,5.3,19,19,0,0,1-8.32,4.58,54.94,54.94,0,0,1-16.4,2.38,43,43,0,0,1-13.69-2.43c-6.55-2.28-9.84-8.11-9.65-14.67.12-4.5,2-8.2,4.64-11.75,5.32-7.26,12.63-10.8,21.3-11.91a49.3,49.3,0,0,1,20,1.41,14.68,14.68,0,0,1,7.76,4.7,11,11,0,0,1,2.28,8.87c-.07.52-.25.67-.78.67-2.55,0-5.1,0-7.66,0Z"/><path class="cls-3" d="M94.13.18l16.47,0c.24,0,.55-.09.57.32q-4.69,20.6-9.4,41.21-1.41,6.2-2.81,12.39c-.1.44-.27.59-.73.59-5.28,0-10.57,0-15.86,0-.54,0-.64-.11-.52-.66Q87.18,30.75,92.46,7.47,93.29,3.83,94.13.18Z"/><path class="cls-4" d="M359.27,126.29l8-8.33,34.38-35.89c.7-.73.71-.73-.1-1.39L376.3,60.08c-.84-.69-.84-.69.05-1.3a29.4,29.4,0,0,0,7.69-7,.94.94,0,0,1,.09-.12c.37-.45.56-1.33,1-1.33s.94.66,1.4,1Q401.82,64,417.09,76.7c.54.44.51.64,0,1.07Q388.52,101.86,360,126C359.78,126.13,359.64,126.43,359.27,126.29Z"/><path class="cls-3" d="M308.7,54.66c-2.52,0-5.05,0-7.58,0-1.2,0-1,.09-.78-.93q3.54-15.67,7.11-31.34c.35-1.57.72-3.14,1-4.72.11-.56.32-.75.92-.75q7.77,0,15.55,0c.68,0,.78.2.64.8q-1.92,8.3-3.8,16.58c-1.48,6.52-3,13-4.43,19.55-.14.6-.33.84-1,.83C313.81,54.63,311.26,54.66,308.7,54.66Z"/><path class="cls-3" d="M346.79,77a17.82,17.82,0,0,1,.5,11,21.66,21.66,0,0,1-3.91,8,10.84,10.84,0,0,1-1.62-3.4.9.9,0,0,1,.16-.73,17.62,17.62,0,0,0,1.71-11.21,1.13,1.13,0,0,1,.16-.89A21.63,21.63,0,0,1,346,76.81C346.38,76.38,346.55,76.35,346.79,77Z"/><path class="cls-3" d="M370,80a14.09,14.09,0,0,0-14.1-12,18.21,18.21,0,0,0-12.29,4.84C337.91,78,335,84.26,336.12,92a14,14,0,0,0,14.15,12.13,17.18,17.18,0,0,0,3-.24C363.92,102,371.81,90.7,370,80Zm-13.86,20c-4.15,1.88-8.23,1.82-11.86-1.23-2.91-2.45-4-5.78-4.16-9.5,0-.15,0-.31,0-.47.35-7,3.24-12.54,9.45-16,3.68-2,7.56-2.29,11.29,0a11.42,11.42,0,0,1,5.2,8.26C367.39,88.42,363,96.9,356.17,100Z"/><path class="cls-3" d="M317.74,88.64a13.47,13.47,0,0,0,2.88,8.78c3.1,3.76,8.05,4.8,12.83,2.72a13.5,13.5,0,0,0,3.09-1.82c.35-.28.55-.35.83.11a17.09,17.09,0,0,0,1.19,1.64c.17.21.26.35,0,.55-5.51,3.95-13.12,5-18.81,1.11a14.09,14.09,0,0,1-6.1-10.38A21.54,21.54,0,0,1,330.07,68.4a14.37,14.37,0,0,1,12.58,2.8c.51.4.6.64,0,1.09A18.24,18.24,0,0,0,340.89,74c-.23.24-.35.36-.67.08-3.83-3.49-8.16-3.73-12.59-1.53C322.11,75.31,319.12,80,318,86A21.93,21.93,0,0,0,317.74,88.64Z"/><path class="cls-3" d="M305.62,104.14a14.61,14.61,0,0,0-1.48,0c-.65.07-.78-.18-.69-.78.4-2.52.76-5,1.13-7.56q1.29-8.61,2.6-17.21c.09-.62-.09-.74-.68-.75-3.25,0-6.51-.1-9.77-.13-.59,0-.68-.18-.59-.72.3-1.66.28-1.62,1.94-1.81a28,28,0,0,0,7.67-1.71,8.45,8.45,0,0,0,4.83-4.73,1,1,0,0,1,1.14-.75c1.64,0,1.62,0,1.37,1.64q-1.71,11.11-3.41,22.22c-.58,3.83-1.19,7.66-1.74,11.5-.09.66-.35.87-1,.79A11.79,11.79,0,0,0,305.62,104.14Z"/><path class="cls-3" d="M312.19.14c5.37,0,10.75,0,16.12,0,.28,0,.71-.23.81.31-.6,2.66-1.2,5.33-1.78,8-.1.44-.26.63-.76.63-5.26,0-10.52,0-15.78,0-.29,0-.76.18-.62-.45Z"/><path class="cls-4" d="M168,75c-1.34,0-1.34,0-1.63,1.31,0,0-.06.06-.09.09a5.08,5.08,0,0,0-8.59,1.37,8,8,0,0,0-.39,5.79,3.85,3.85,0,0,0,3.11,2.86,4.63,4.63,0,0,0,4.88-1.59,7.87,7.87,0,0,1-.63,3.13c-.79,1.8-4.13,1.69-4.65.44-.45-1.07-1.13-1-1.94-.84a9.81,9.81,0,0,1-1.09.11c-.43,0-.52.18-.43.57a4,4,0,0,0,2.76,3.2,10,10,0,0,0,4.48.25A4.58,4.58,0,0,0,168,87.75c.07-.36.17-.71.22-1.07.45-3.27.89-6.55,1.35-9.82C169.83,75,169.86,75,168,75Zm-2.74,7.53a2.9,2.9,0,0,1-3.33,1A2.55,2.55,0,0,1,160.2,81a4.76,4.76,0,0,1,.3-1.83A3,3,0,0,1,164,77.25c1.27.26,1.94,1.3,1.88,3.06A3.84,3.84,0,0,1,165.23,82.53Z"/><path class="cls-4" d="M125.41,76.49a5.65,5.65,0,0,1,4.08-1.9c2.65,0,4.06,1.41,3.84,4s-.61,5-.92,7.51c0,.34-.17.45-.49.44-.81,0-1.62,0-2.42,0-.42,0-.46-.15-.41-.52.26-1.9.5-3.81.75-5.72,0-.13,0-.26,0-.39.14-1.5-.11-2.13-1-2.44a3.05,3.05,0,0,0-3.28,1,4.87,4.87,0,0,0-.75,2.11c-.25,1.81-.5,3.61-.73,5.42,0,.4-.19.52-.58.5-.7,0-1.41,0-2.11,0s-.7-.17-.63-.71c.4-2.86.77-5.72,1.14-8.59.36-2.65.73-5.3,1-8,.09-.75.26-1.2,1.15-1.06a7.49,7.49,0,0,0,1.64,0c.56,0,.7.12.61.69C126.07,71.43,125.76,73.9,125.41,76.49Z"/><path class="cls-4" d="M254.05,79.22c-.37-2.79-2.69-4.63-5.83-4.63a6.41,6.41,0,0,0-6.62,5.34c-.66,3.42,1.06,6.27,4.21,6.94a7.73,7.73,0,0,0,3.64-.13C252.7,85.86,254.54,82.85,254.05,79.22ZM247.16,84a2.12,2.12,0,0,1-1.68-.84,3.47,3.47,0,0,1-.26-3.49,2.83,2.83,0,0,1,2.52-1.93,2.48,2.48,0,0,1,3,2.75A3.28,3.28,0,0,1,247.16,84Z"/><path class="cls-4" d="M89.79,75.08c-4.34-1.63-9.29.8-9.36,6.13,0,2.29.81,4.18,3,5.17,4.22,1.94,9.7-.58,9.68-5.94C93.1,77.88,91.94,75.88,89.79,75.08ZM86.38,84a2.33,2.33,0,0,1-2.49-2.09,3.36,3.36,0,0,1,3.68-4.19,2.22,2.22,0,0,1,1.76,1.15A3.48,3.48,0,0,1,86.38,84Z"/><path class="cls-4" d="M213.5,81.48c1.28,0,2.55,0,3.82,0h2.35c2.32,0,2.34,0,2-2.34a4.86,4.86,0,0,0-3.2-4.17,6.59,6.59,0,0,0-7.24,1.84c-2.3,2.65-2,7,.55,9a7,7,0,0,0,8.45-.54c.73-.73.73-.73,0-1.38-.4-.33-.81-.65-1.2-1-.24-.21-.4-.25-.61,0a3.49,3.49,0,0,1-1,.87c-1.85,1.09-4.17.16-4.39-1.76C212.93,81.66,213,81.47,213.5,81.48Zm-.2-2.41a3.07,3.07,0,0,1,3.93-1.84,1.93,1.93,0,0,1,1,.89c.62,1.09.42,1.44-.78,1.44h-1.64c-.73,0-1.46,0-2.18,0C213.28,79.58,213.16,79.48,213.3,79.07Z"/><path class="cls-4" d="M272.27,81.48c1.28,0,2.56,0,3.83,0h2.81c1.62,0,1.62,0,1.55-1.61a5.13,5.13,0,0,0-3.85-5.08,7.16,7.16,0,0,0-3.09-.08c-3.17.55-5.27,3.45-5.12,7.08.14,3,2.23,5,5.47,5.19a6.17,6.17,0,0,0,5.41-2c.26-.3.28-.48-.06-.74A17.75,17.75,0,0,1,277.71,83c-.28-.27-.44-.22-.67.06a3.31,3.31,0,0,1-1.8,1.17,2.67,2.67,0,0,1-3.54-2.08C271.66,81.64,271.77,81.47,272.27,81.48Zm2.9-4.41a2.17,2.17,0,0,1,2.13,2c.05.35,0,.51-.43.5-1.63,0-3.27,0-5,0A3,3,0,0,1,275.17,77.07Z"/><path class="cls-4" d="M146.6,76.69c.47-.4.81-.71,1.18-1a5,5,0,0,1,4.86-.83,2.92,2.92,0,0,1,2.16,2.76,19.51,19.51,0,0,1-.35,4c-.18,1.47-.42,2.94-.57,4.41,0,.49-.24.6-.69.58a15.28,15.28,0,0,0-2,0c-.61,0-.68-.22-.61-.73.25-1.75.48-3.5.7-5.26a10.9,10.9,0,0,0,.1-1.71,1.44,1.44,0,0,0-1.4-1.49,2.92,2.92,0,0,0-3.29,2,19,19,0,0,0-.64,3.68c-.14,1-.26,1.91-.36,2.86,0,.44-.2.64-.69.61-.72,0-1.46,0-2.18,0-.4,0-.57-.08-.51-.52q.72-5.3,1.4-10.6c0-.38.23-.47.56-.46a18.31,18.31,0,0,0,2,0c.55,0,.68.18.56.67C146.7,75.94,146.67,76.24,146.6,76.69Z"/><path class="cls-4" d="M77.07,69.27c1.8,0,3.6,0,5.39,0,.47,0,.77,0,.59.62A9.67,9.67,0,0,0,82.9,71c-.19,1.33-.19,1.33-1.5,1.33-.76,0-1.51,0-2.27,0-.47,0-.6.17-.66.62-.55,4.34-1.14,8.67-1.68,13-.06.55-.25.69-.76.67a17.78,17.78,0,0,0-2.19,0c-.6,0-.77-.14-.68-.74.31-2.14.58-4.28.86-6.42s.56-4.29.86-6.42c.08-.54,0-.75-.62-.72-1.07,0-2.14,0-3.2,0-.45,0-.64-.11-.52-.57,0-.13,0-.26.07-.39.1-.66,0-1.55.37-1.93s1.33-.12,2-.13C74.36,69.25,75.72,69.27,77.07,69.27Z"/><path class="cls-4" d="M97.83,75c1.61,0,1.63,0,1.44,1.6s-.37,2.89-.56,4.34c0,.25-.06.51-.07.77,0,1.35.42,2.06,1.5,2.3a2.4,2.4,0,0,0,2.9-1.38,16.56,16.56,0,0,0,.91-4.41c.13-.9.24-1.81.34-2.71,0-.34.15-.52.53-.51.81,0,1.61,0,2.42,0,.31,0,.48.05.42.44-.37,2.26-.53,4.55-1,6.79-.71,3.25-2.71,4.84-6,4.8a8.59,8.59,0,0,1-2.08-.26A4.07,4.07,0,0,1,95.3,82.1c.21-2.07.5-4.14.71-6.21.07-.69.29-1,1-.9A5.08,5.08,0,0,0,97.83,75Z"/><path class="cls-4" d="M183.62,86.57c-1.41,0-2.81,0-4.22,0-.45,0-.57-.11-.51-.58Q180,77.93,181,69.84c.05-.42.16-.6.61-.58.85,0,1.72,0,2.57,0,.45,0,.5.14.45.54-.41,3-.8,6-1.2,9-.17,1.32-.33,2.63-.54,3.94-.09.54,0,.72.61.71,1.59,0,3.17,0,4.76,0,.45,0,.59.09.48.57a17.87,17.87,0,0,0-.25,1.93c0,.46-.22.62-.68.61C186.43,86.55,185,86.57,183.62,86.57Z"/><path class="cls-3" d="M.16,79.08V77.84c.23,0,.47,0,.7,0H60.78c.5,0,.9,0,.85.7,0,.53-.2.63-.68.63H.47Z"/><path class="cls-4" d="M201.71,82.81c.26,0,.29-.21.34-.35.89-2.36,2.19-4.54,3.22-6.83a1,1,0,0,1,1.07-.65c1,0,2,0,2.95,0a1.13,1.13,0,0,1-.27.78c-1.83,3.38-3.67,6.76-5.48,10.16a1,1,0,0,1-1.07.65c-.78,0-1.56,0-2.35,0-.38,0-.54-.13-.64-.49q-1.3-5.26-2.65-10.51c-.11-.42-.06-.61.45-.59.83,0,1.66,0,2.5,0,.38,0,.56.11.62.5C200.81,77.92,201.42,80.32,201.71,82.81Z"/><path class="cls-4" d="M260.49,83c1-2.64,2.41-5,3.58-7.56.12-.26.22-.5.6-.49,1.12,0,2.24,0,3.35,0,.05.28-.11.44-.21.62-1.86,3.45-3.74,6.9-5.58,10.37a1,1,0,0,1-1,.6,21.49,21.49,0,0,0-2.27,0,.62.62,0,0,1-.74-.56q-1.31-5.26-2.66-10.51c-.12-.47,0-.54.43-.52s.88,0,1.33,0c1.74,0,1.75,0,2.06,1.76C259.72,78.85,260.25,80.92,260.49,83Z"/><path class="cls-4" d="M119.13,78.71a4.21,4.21,0,0,0-3.93-1,3.68,3.68,0,0,0-2.2,5,3,3,0,0,0,3.28,1.4,7.42,7.42,0,0,0,2-.61c.53-.25.59,0,.51.42-.12.67-.24,1.33-.34,2a.81.81,0,0,1-.61.71,7.61,7.61,0,0,1-5.34,0,5.28,5.28,0,0,1-3.21-5.4c.17-5.72,5.8-7.85,9.92-5.74.53.27.77.57.53,1.2S119.35,77.92,119.13,78.71Z"/><path class="cls-4" d="M227.46,87a6,6,0,0,1-4.41-1.83c-.27-.25-.32-.44,0-.67a2.28,2.28,0,0,0,.22-.22c.43-.42.79-1.06,1.3-1.2s.75.69,1.24,1a3,3,0,0,0,1.89.59,1.12,1.12,0,0,0,1-.73,1,1,0,0,0-.34-1.12,10.6,10.6,0,0,0-1.74-1.17,4.33,4.33,0,0,1-2.11-2.31,3.48,3.48,0,0,1,1.8-4.08,5.74,5.74,0,0,1,6.46.94c.25.24.37.42,0,.65a3.52,3.52,0,0,0-.35.31c-.39.35-.73.86-1.18,1s-.78-.54-1.22-.78a2.54,2.54,0,0,0-1.71-.38,1,1,0,0,0-.84.74.88.88,0,0,0,.35.89,9.1,9.1,0,0,0,1.82,1.2c2,1.15,2.6,2.38,2.16,4.27a4.12,4.12,0,0,1-4,2.93Z"/><path class="cls-4" d="M286.83,76.51a4.87,4.87,0,0,1,2.74-1.85,5,5,0,0,1,.54-.07c1.14-.06,1.18,0,1,1.12,0,.13,0,.26-.08.39-.12.58-.07,1.3-.41,1.71s-1,0-1.58,0a2.68,2.68,0,0,0-2.29,1.62,11.68,11.68,0,0,0-.77,3.49c-.14,1-.26,2-.35,2.95,0,.5-.2.74-.76.7-.72,0-1.45,0-2.18,0-.37,0-.5-.08-.45-.48q.7-5.27,1.38-10.52c.06-.4.18-.61.63-.58.75,0,1.51,0,2.26,0,.51,0,.57.17.46.6A6.8,6.8,0,0,0,286.83,76.51Z"/><path class="cls-3" d="M338.47,110.07c-.56,0-1.29-.22-1.13,1a3.7,3.7,0,0,0-6.32,1.86c-.69,2.93.92,4.91,3.72,4.54a3.57,3.57,0,0,0,1.68-.82c-.07.5.12.67.54.62a3.62,3.62,0,0,1,.93,0c.61.09.81-.18.88-.76.22-1.72.49-3.43.75-5.15C339.71,110.07,339.71,110.07,338.47,110.07Zm-3.55,5.59a1.69,1.69,0,0,1-1.79-1.89,2.07,2.07,0,0,1,2.18-2.29,1.68,1.68,0,0,1,1.73,1.88A2.12,2.12,0,0,1,334.92,115.66Z"/><path class="cls-3" d="M312.51,120.42c.63-1.07,1.17-2,1.76-2.93a1.46,1.46,0,0,0,.18-1.37c-.58-1.81-1.09-3.64-1.65-5.44-.16-.48-.1-.62.44-.62,1.84,0,1.84,0,2.23,1.8l.6,2.82a.61.61,0,0,0,.07.14c.72-1.33,1.48-2.64,2.15-4a1.17,1.17,0,0,1,1.33-.76,13.5,13.5,0,0,0,1.56,0c.07.36-.18.56-.32.79-1.76,2.94-3.55,5.87-5.29,8.82a1.23,1.23,0,0,1-1.35.75A15.9,15.9,0,0,0,312.51,120.42Z"/><path class="cls-3" d="M328.06,110.33a4.83,4.83,0,0,0-5.6,1,3.61,3.61,0,0,0,1.87,6,5.86,5.86,0,0,0,2.94-.13,3.64,3.64,0,0,0,1.59-1c.14-.15.33-.3.05-.5a6.17,6.17,0,0,0-1.22-.84c-.3-.12-.51.35-.8.51a2.49,2.49,0,0,1-2.25.16,1.34,1.34,0,0,1-.8-.81c-.17-.45-.15-.74.47-.71.81,0,1.62,0,2.43,0s1.66,0,2.5,0c.3,0,.46-.06.5-.41A3.43,3.43,0,0,0,328.06,110.33Zm-.55,2.39c-.12.33-.5.15-.76.16-.93,0-1.85,0-2.79,0,.26-1.63,2.45-1.84,3.17-1.13A.94.94,0,0,1,327.51,112.72Z"/><path class="cls-4" d="M192.16,86.57c-1.71,0-1.69,0-1.47-1.71.39-3,.78-6,1.14-9,.07-.63.27-.91.95-.83a15.28,15.28,0,0,0,2,0c.41,0,.48.15.43.51q-.7,5.3-1.38,10.59c-.05.36-.18.5-.53.48S192.55,86.57,192.16,86.57Z"/><path class="cls-4" d="M137.34,86.57c-1.69,0-1.71,0-1.5-1.7.38-3.06.8-6.12,1.17-9.19.07-.56.26-.75.82-.7a11.54,11.54,0,0,0,1.95,0c.52,0,.67.14.6.66-.35,2.54-.68,5.09-1,7.64-.11.83-.27,1.65-.31,2.48,0,.67-.28.92-.94.81A5.08,5.08,0,0,0,137.34,86.57Z"/><path class="cls-3" d="M350,117.46a4.42,4.42,0,0,1-2.69-.9c-.39-.27-.58-.51-.07-.85a2.3,2.3,0,0,0,.46-.42c.28-.34.48-.32.79,0a2.08,2.08,0,0,0,1.59.71.76.76,0,0,0,.8-.5c.13-.36-.12-.59-.39-.76-.5-.32-1-.59-1.53-.92a2,2,0,0,1,.23-3.55,4.09,4.09,0,0,1,4.28.37c.34.23.43.43,0,.69a4.22,4.22,0,0,0-.61.49c-.26.28-.46.22-.71,0a1.85,1.85,0,0,0-1.58-.51.65.65,0,0,0-.53.41.48.48,0,0,0,.26.6c.41.26.84.51,1.27.75,1.21.65,1.58,1.25,1.43,2.31a2.46,2.46,0,0,1-2.11,2C350.62,117.43,350.3,117.43,350,117.46Z"/><path class="cls-3" d="M344,111.05a2.88,2.88,0,0,1,2.54-1.18c.19,0,.47,0,.41.3-.09.54-.2,1.07-.34,1.6-.07.25-.3.13-.47.11a2,2,0,0,0-2.49,1.71,28.58,28.58,0,0,0-.45,2.92c-.06.49-.19.72-.76.72-1.61,0-1.63,0-1.41-1.56s.51-3.39.74-5.08c0-.4.18-.56.58-.52a3.54,3.54,0,0,0,.86,0C343.9,110,344.25,110.17,344,111.05Z"/><path class="cls-5" d="M137.39,70.52a1.9,1.9,0,0,1,2-2,2,2,0,0,1,1.94,1.93,2,2,0,0,1-1.92,2A2,2,0,0,1,137.39,70.52Z"/><path class="cls-5" d="M194.17,72.47a1.94,1.94,0,0,1-1.93-2,1.89,1.89,0,0,1,1.95-1.89,1.94,1.94,0,0,1,1.95,2A2,2,0,0,1,194.17,72.47Z"/><path class="cls-6" d="M374.42,120.7l.16.15-.69.52A.86.86,0,0,1,374.42,120.7Z"/><path class="cls-7" d="M378.16,12.83,378,13l-.49-.45a.16.16,0,0,1,0-.23Z"/><path class="cls-8" d="M377.55,12.29l0,.23-.69-.63A.92.92,0,0,1,377.55,12.29Z"/><path class="cls-9" d="M182.13,22.51a.45.45,0,0,1-.27.33.7.7,0,0,1,.09-.67C182,22.3,182,22.44,182.13,22.51Z"/><path class="cls-10" d="M373.65,121.35c-.07.33-.22.39-.44.4C373.26,121.53,373.41,121.46,373.65,121.35Z"/><path class="cls-11" d="M372.64,122.19c0-.18.12-.25.26-.3s.08.07.07.09A.25.25,0,0,1,372.64,122.19Z"/><path class="cls-12" d="M347.29,88a21.66,21.66,0,0,1-3.91,8,10.84,10.84,0,0,1-1.62-3.4.9.9,0,0,1,.16-.73,17.62,17.62,0,0,0,1.71-11.21,1.13,1.13,0,0,1,.16-.89A21.63,21.63,0,0,1,346,76.81c.38-.43.55-.46.79.15A17.82,17.82,0,0,1,347.29,88Z"/><path class="cls-3" d="M347.29,88a21.66,21.66,0,0,1-3.91,8,10.84,10.84,0,0,1-1.62-3.4.9.9,0,0,1,.16-.73,17.62,17.62,0,0,0,1.71-11.21,1.13,1.13,0,0,1,.16-.89A21.63,21.63,0,0,1,346,76.81c.38-.43.55-.46.79.15A17.82,17.82,0,0,1,347.29,88Z"/></g></g></svg>